# xmcd CD database file
#
# Track frame offsets:
#	150
#	17372
#	43475
#	68270
#	85382
#	105932
#	130282
#	155392
#	173525
#	192865
#	214582
#	236922
#	254740
#	274987
#
# Disc length: 4238 seconds
#
# Revision: 0
# Processed by: cddbd v1.5.2PL0 Copyright (c) Steve Scherf et al.
# Submitted via: CDex 1.70beta2
#
DISCID=bc108c0e
DTITLE=Kenny Wayne Sheppard Band - Trouble Is...
DYEAR=1997
DGENRE=Blues
TTITLE0=Slow Ride
TTITLE1=True Lies
TTITLE2=Blue On Black
TTITLE3=Everything Is Broken
TTITLE4=I Don't Live Today
TTITLE5=(Long) Gone
TTITLE6=Somehow. Somewhere. Someway
TTITLE7=I Found Love (When I Found You)
TTITLE8=King's Highway
TTITLE9=Nothing To Do With Love
TTITLE10=Chase The Rainbow
TTITLE11=Trouble Is...
TTITLE12=Blue On Black (The Road Mix)
TTITLE13=Voodoo Child
EXTD=YEAR: 1997
EXTT0=
EXTT1=
EXTT2=
EXTT3=
EXTT4=
EXTT5=
EXTT6=
EXTT7=
EXTT8=
EXTT9=
EXTT10=
EXTT11=
EXTT12=
EXTT13=
PLAYORDER=
